<svg width="183" height="150" viewBox="0 0 183 150" fill="none" xmlns="http://www.w3.org/2000/svg">
<path fill-rule="evenodd" clip-rule="evenodd" d="M101.258 2.54002C93.3568 4.97069 93.3449 4.99245 92.7515 16.1767L92.158 27.3787H80.469C70.2675 27.3787 68.137 28.069 63.7514 32.7978C58.1808 38.8043 57.255 44.1897 61.5121 45.8233C63.4151 46.5551 64.7009 51.7982 65.5654 62.3515C67.5712 86.8362 68.7878 93.2659 70.9974 91.0567C72.2734 89.7811 72.3584 81.7277 71.2368 68.1226L69.5099 47.1564H94.3815H119.253L117.607 64.2957C116.569 75.1081 116.676 82.1509 117.896 83.3712C120.24 85.7148 121.336 81.0849 122.964 61.9896C123.704 53.3151 125.227 47.3245 127.043 45.9499C131.241 42.7697 130.622 38.9506 124.917 32.7978C120.511 28.0492 118.42 27.3787 107.993 27.3787H96.0946L96.698 18.1821C97.2973 9.04488 97.3646 8.96577 106.765 6.23448C111.969 4.72347 115.7 2.63298 115.055 1.58872C113.619 -0.73713 111.408 -0.582864 101.258 2.54002ZM121.57 37.2675C123.999 41.1578 123.546 41.2231 94.334 41.2231C65.1223 41.2231 64.6693 41.1578 67.0985 37.2675C69.3556 33.6542 71.7116 33.312 94.334 33.312C116.956 33.312 119.312 33.6542 121.57 37.2675ZM33.5683 68.8524C15.9032 79.6213 -4.68767 112.871 0.948159 121.532C2.97975 124.655 74.3149 148.03 75.5769 145.985C77.0151 143.659 73.7986 142.269 43.4019 132.081C13.5966 122.094 13.6817 122.205 22.3046 104.905C27.707 94.0669 41.2991 80.7783 46.9824 80.7783C51.2968 80.7783 53.3679 88.0446 49.4808 89.5378C47.5837 90.2637 46.8162 92.8249 47.2257 97.0593C47.7875 102.866 48.6005 103.602 55.7595 104.775C60.1115 105.488 63.9868 105.777 64.3706 105.419C64.7543 105.059 61.2609 95.8073 56.6082 84.8604C47.2633 62.8756 45.4453 61.6118 33.5683 68.8524ZM134.934 67.4284C134.485 68.7891 133.844 74.6393 133.512 80.4322C132.934 90.5129 133.14 91.0113 138.305 92.0437C141.272 92.637 144.718 94.3497 145.964 95.8508C149.05 99.5671 164.385 99.397 167.527 95.6115C168.882 93.9799 171.936 92.6449 174.314 92.6449H178.638L176.144 113.906C174.773 125.598 173.608 135.835 173.556 136.65C173.505 137.465 166.838 138.133 158.742 138.133C150.645 138.133 143.472 139.023 142.799 140.111C142.018 141.373 148.042 142.089 159.46 142.089C180.231 142.089 177.882 145.309 181.597 111.742C183.5 94.5613 183.475 89.9868 181.473 88.7507C179.958 87.8132 179.497 85.5566 180.302 83.0191C181.33 79.7756 180.509 78.3219 176.658 76.5677C173.924 75.3217 171.418 72.4223 171.091 70.1241C170.338 64.8474 157.636 62.6521 157.636 67.7983C157.636 71.8487 148.03 71.9575 146.483 67.9229C145.106 64.3392 136.083 63.9535 134.934 67.4284ZM46.0902 71.2475C46.9468 72.6339 45.5877 74.8431 42.7451 76.6863C30.7059 84.4886 21.2364 95.396 15.9329 107.567C10.6551 119.681 5.29422 124.388 5.33576 116.872C5.36543 111.586 13.9092 94.4427 20.269 86.9114C26.0117 80.1098 40.2051 68.9117 43.0814 68.9117C43.9419 68.9117 45.295 69.9619 46.0902 71.2475ZM143.788 79.9061C143.788 84.7378 142.938 88.6894 141.899 88.6894C139.51 88.6894 137.025 75.9031 138.612 71.7676C140.76 66.1725 143.788 70.935 143.788 79.9061ZM165.149 81.1165C164.783 88.6716 163.618 93.6298 162.087 94.1361C159.351 95.04 158.74 85.6416 160.85 75.0923C162.979 64.4479 165.764 68.3501 165.149 81.1165ZM154.421 81.0255C156.376 90.7937 155.887 94.6227 152.69 94.6227C150.449 94.6227 149.723 92.2058 149.723 84.7338C149.723 73.7058 152.516 71.5006 154.421 81.0255ZM175.064 84.2394C174.26 88.4085 170.749 88.1455 169.855 83.8498C169.481 82.0579 170.571 80.7783 172.472 80.7783C174.51 80.7783 175.479 82.0738 175.064 84.2394ZM78.0952 93.4558C71.1537 99.842 66.7048 109.193 69.3516 111.839C70.0182 112.504 69.5732 114.238 68.3645 115.694C64.8493 119.928 74.9518 138.011 84.4886 144.561C91.3945 149.304 94.3024 150 107.192 150C120.082 150 122.99 149.304 129.896 144.561C139.314 138.092 149.747 119.566 146.054 115.874C144.807 114.628 143.759 111.786 143.723 109.555C143.626 103.616 136.96 96.6004 131.411 96.6004C128.76 96.6004 124.537 94.8204 122.029 92.6449C116.911 88.2068 112.055 87.5858 108.7 90.9401C106.569 93.0701 97.6119 91.745 88.3995 87.9339C86.5756 87.1784 82.6054 89.3064 78.0952 93.4558ZM56.444 97.4865C56.8792 99.7411 56.167 100.692 54.4658 100.125C53 99.6383 51.4966 97.6526 51.1187 95.7144C50.6835 93.4597 51.3957 92.5084 53.0969 93.076C54.5627 93.5626 56.0662 95.5483 56.444 97.4865ZM95.5941 94.595C96.8305 94.6108 98.2212 97.2096 98.684 100.37C99.5149 106.022 99.4555 106.062 95.0145 102.842C92.5339 101.04 90.4746 98.9006 90.439 98.0837C90.4054 97.2669 89.0424 96.6004 87.4104 96.6004C85.7784 96.6004 84.4431 95.6076 84.4431 94.3913C84.4431 93.0662 86.2235 92.6607 88.894 93.3767C91.341 94.0313 94.3558 94.5811 95.5941 94.595ZM118.897 95.8944C119.582 97.6823 119.556 99.6838 118.838 100.344C118.118 101.005 117.133 100.433 116.648 99.0726C115.319 95.3544 112.563 96.0981 111.149 100.556C109.598 105.439 104.225 105.803 104.225 101.025C104.225 94.8501 116.806 90.4516 118.897 95.8944ZM89.0009 104.468C99.2676 110.977 100.811 114.4 93.4775 114.4C90.2174 114.4 88.2175 112.964 87.2779 109.95C85.545 104.399 82.0396 101.998 80.1445 105.065C79.3553 106.343 80.1366 108.965 81.8834 110.894C84.8249 114.145 84.7537 114.4 80.8923 114.4C75.2169 114.4 72.6097 109.199 75.3376 103.315C76.5383 100.726 78.0121 98.6019 78.6154 98.594C79.2188 98.5861 83.8932 101.228 89.0009 104.468ZM133.898 102.534C133.898 103.621 135.233 104.511 136.865 104.511C138.497 104.511 139.832 105.328 139.832 106.327C139.832 110.672 137.175 114.4 134.082 114.4C131.573 114.4 130.733 112.664 130.733 107.478C130.733 103.671 131.445 100.556 132.315 100.556C133.185 100.556 133.898 101.446 133.898 102.534ZM29.5348 106.8C23.8693 112.464 28.9196 121.212 37.1508 119.991C43.1566 119.099 46.4977 113.459 43.6808 108.961C41.0201 104.713 32.8681 103.467 29.5348 106.8ZM126.574 105.759C127.261 106.448 126.934 108.673 125.846 110.704C123.605 114.889 116.094 115.755 116.094 111.829C116.094 106.695 123.322 102.51 126.574 105.759ZM38.945 112.423C38.945 114.598 37.6632 116.378 36.0945 116.378C32.599 116.378 30.3657 113.123 32.0214 110.445C34.1717 106.964 38.945 108.329 38.945 112.423ZM111.643 111.928C112.128 113.378 110.763 114.4 108.345 114.4C105.916 114.4 104.225 113.123 104.225 111.289C104.225 107.654 110.397 108.186 111.643 111.928ZM52.0425 117.408C47.8251 121.627 47.9932 124.892 52.6498 129.105C55.1364 131.356 57.9296 132.091 60.6714 131.221C66.145 129.485 64.6416 125.082 58.8633 125.927C55.447 126.425 54.5924 125.741 55.1661 122.96C55.5795 120.951 57.4588 119.473 59.3935 119.635C63.609 119.987 62.6317 115.634 58.3094 114.796C56.626 114.47 53.8071 115.646 52.0425 117.408ZM141.802 120.828C141.789 125.571 133.886 136.221 127.486 140.121C122.59 143.107 117.516 144.053 106.389 144.059C93.7267 144.065 90.8425 143.382 85.1216 139.019C78.8449 134.233 72.5741 124.944 72.5741 120.432C72.5741 119.062 84.3403 118.356 107.192 118.356C133.571 118.356 141.808 118.943 141.802 120.828Z" fill="black"/>
</svg>
