<svg width="145" height="130" viewBox="0 0 145 130" fill="none" xmlns="http://www.w3.org/2000/svg">
<path fill-rule="evenodd" clip-rule="evenodd" d="M70.358 0.439049C68.9044 0.988864 49.3603 19.5026 48.4612 21.1809C47.9293 22.175 48.0334 23.2831 48.8503 25.3242C50.2455 28.8087 49.7128 31.0536 46.9365 33.3879C44.6949 35.2736 44.2383 35.3024 36.5862 34.0382C34.2137 33.6466 33.7127 34.0073 22.8663 43.9251C16.6748 49.5863 8.99738 56.7347 5.80453 59.8107L0 65.4037V85.64C0 104.353 0.097093 105.965 1.28685 107.041C1.99465 107.68 3.43347 108.204 4.48462 108.204C8.38034 108.204 11.0518 113.084 9.12543 116.68C8.27199 118.274 4.88636 120.157 2.87412 120.157C0.130865 120.157 -1.00471 125.442 1.09547 128.437C1.8075 129.454 2.91845 130 4.27284 130C8.4317 130 70.7288 121.436 71.4134 120.771C71.8003 120.394 72.1345 117.941 72.1563 115.32C72.188 111.436 72.5524 109.943 74.1214 107.268C77.4902 101.523 84.9193 99.3376 91.1073 102.272C94.4908 103.877 97.7976 108.908 97.7976 112.452C97.7976 114.086 98.2866 115.459 99.1457 116.236C100.428 117.396 101.512 117.318 121.484 114.622C140.264 112.088 142.604 111.63 143.706 110.271C144.731 109.006 144.937 107.29 144.937 100.041C144.937 92.1598 144.798 91.1909 143.476 89.8698C142.672 89.0662 141.546 88.5888 140.974 88.8081C140.402 89.0275 138.885 88.7688 137.603 88.2337C130.232 85.1563 131.954 74.9728 140.012 73.9786C141.754 73.7642 143.575 73.0899 144.058 72.4817C145.353 70.8513 145.296 40.816 143.991 37.6971C140.064 28.3109 103.196 6.57139 81.8144 1.03456C77.5823 -0.0608473 72.3927 -0.330833 70.358 0.439049ZM87.5957 9.40343C98.5406 13.4546 114.022 21.3187 123.024 27.3997C131.087 32.8465 135.798 36.653 135.784 37.7098C135.78 38.0051 134.452 38.8031 132.833 39.483L129.89 40.7197L127.739 38.6477C125.141 36.1433 122.525 35.083 118.945 35.083C112.121 35.083 106.241 40.2817 106.241 46.3149C106.241 48.5852 107.204 48.3461 86.1885 51.2913C80.384 52.1048 61.704 54.7709 44.6773 57.2156C27.6507 59.6602 13.629 61.5747 13.5179 61.47C13.4074 61.3659 18.4035 56.6123 24.6211 50.906L35.9255 40.532L39.2773 40.9763C45.9304 41.8587 52.7734 38.197 54.8905 32.6222C55.3309 31.4621 55.5877 28.7116 55.4611 26.5096L55.231 22.5062L64.0258 14.3363L72.8205 6.16711L76.6902 6.4835C78.8185 6.65717 83.726 7.97124 87.5957 9.40343ZM70.6162 24.4397C65.8065 27.4566 64.6625 32.5217 67.9187 36.3887C74.1651 43.8063 86.4643 37.3688 82.798 28.6006C80.8174 23.8631 74.8074 21.8101 70.6162 24.4397ZM77.7667 30.899C78.5012 32.0858 76.6698 33.6769 74.5689 33.6769C72.7846 33.6769 71.7651 32.625 71.7651 30.7844C71.7651 28.822 76.5389 28.9127 77.7667 30.899ZM122.462 41.4319C123.207 41.8299 124.299 43.0905 124.891 44.2337C126.39 47.1319 128.372 47.3737 133.638 45.3024C136.129 44.3223 138.267 43.5201 138.387 43.5201C138.507 43.5201 138.605 49.014 138.605 55.7285V67.937L135.444 69.1435C129.393 71.4531 125.655 78.7216 127.328 84.9271C128.372 88.8046 131.637 92.377 135.472 93.8409L138.605 95.0368V100.566C138.605 103.607 138.526 106.105 138.429 106.116C138.333 106.128 130.544 107.178 121.121 108.449C105.916 110.5 103.952 110.636 103.674 109.658C102.69 106.201 99.3666 100.863 97.0631 99.0395C85.1057 89.5759 67.5254 97.1011 66.2709 112.22C65.9121 116.543 68.0186 115.837 47.8434 118.395C40.2975 119.352 29.2162 120.772 23.2181 121.551C17.2201 122.33 12.243 122.968 12.1579 122.968C12.0727 122.968 12.7855 121.817 13.7409 120.41C15.0876 118.428 15.4788 116.946 15.4788 113.835C15.4788 108.871 13.6065 105.767 9.3555 103.68L6.39765 102.228L6.36529 85.6393L6.33222 69.0507L11.785 68.2695C14.7843 67.8399 24.8364 66.3564 34.1236 64.9727C49.1577 62.7327 90.7393 56.6904 104.833 54.6971C111.529 53.7507 112.841 52.6813 112.238 48.6604C111.982 46.9603 112.117 45.0739 112.552 44.2633C114.124 41.3265 119.431 39.8106 122.462 41.4319ZM37.7252 75.8861C33.7479 77.0764 30.2539 81.8349 30.2539 86.0626C30.2539 87.0568 30.9069 89.1505 31.7054 90.7142C35.3725 97.897 46.5974 97.5714 49.6819 90.1932C52.0297 84.5777 50.0112 78.8862 44.8384 76.54C41.578 75.0607 40.7415 74.984 37.7252 75.8861ZM44.3037 83.7719C45.2711 85.5079 45.2711 85.903 44.303 87.6389C42.4167 91.0236 37.1166 90.4323 36.4138 86.7579C35.5125 82.0465 41.9784 79.5991 44.3037 83.7719Z" fill="black"/>
</svg>
