<svg width="160" height="110" viewBox="0 0 160 110" fill="none" xmlns="http://www.w3.org/2000/svg">
<path fill-rule="evenodd" clip-rule="evenodd" d="M67.1233 0.873614C58.089 2.22235 50.5533 4.54443 41.6145 8.73494C20.2151 18.7661 5.97392 34.7352 1.13114 54.1305C-1.19571 63.4488 0.129094 74.2283 4.53642 81.831C8.69802 89.0106 14.893 94.4783 24.2233 99.2081C38.844 106.619 56.1091 109.969 79.8315 110C121.901 110.054 151.252 96.7173 158.642 74.1885C159.805 70.6424 160.037 68.546 159.996 61.9606C159.949 54.6337 159.779 53.5411 157.822 47.9823C149.421 24.1183 123.833 5.02193 94.689 0.865665C86.5721 -0.291707 74.9105 -0.288038 67.1233 0.873614ZM89.1969 6.69533C107.53 8.59126 124.316 16.1035 136.505 27.8667C152.321 43.1315 157.686 62.7677 150.006 77.2828C143.381 89.8042 125.813 98.7691 101.071 102.254C64.0102 107.474 25.5946 98.8253 13.0283 82.432C8.78842 76.9001 7.41332 72.9376 7.09246 65.3233C6.76524 57.5439 7.80802 52.6558 11.3425 45.4126C14.4881 38.9666 16.8684 35.6645 22.4828 29.962C35.1904 17.0548 53.287 8.64935 72.52 6.72162C80.2874 5.94331 81.8999 5.94086 89.1969 6.69533ZM33.5708 50.2762C32.5707 50.7519 32.0206 51.6164 31.8882 52.9187C31.4827 56.9111 37.4727 57.9743 38.4874 54.0901C39.2896 51.0215 36.5196 48.8725 33.5708 50.2762ZM50.5922 62.6154C49.2209 63.933 49.3387 65.6914 50.8977 67.1887C52.3403 68.5741 54.4227 68.3552 55.7991 66.6733C56.8075 65.4413 56.8228 63.3412 55.8309 62.3886C54.7493 61.3498 51.7763 61.4788 50.5922 62.6154ZM22.6343 67.6643C20.5608 69.8647 21.8086 73.2714 24.6874 73.2714C27.7909 73.2714 29.4398 70.448 27.9246 67.7285C27.076 66.2062 24.0431 66.1695 22.6343 67.6643ZM39.1877 76.9734C37.2174 78.4616 36.9958 80.5947 38.6606 82.0419C42.0252 84.9662 47.1213 80.8222 44.3399 77.4241C42.975 75.7568 41.0244 75.5862 39.1877 76.9734ZM58.4061 82.1C57.8407 83.2922 57.8407 84.0381 58.4061 85.2303C59.0395 86.5644 59.4991 86.7674 61.521 86.606C63.464 86.4507 64.0058 86.1065 64.5163 84.7027C65.3822 82.3244 64.3362 80.9585 61.4682 80.7244C59.5023 80.5636 59.0357 80.7733 58.4061 82.1Z" fill="black"/>
</svg>
