<svg width="171" height="130" viewBox="0 0 171 130" fill="none" xmlns="http://www.w3.org/2000/svg">
<path fill-rule="evenodd" clip-rule="evenodd" d="M128.122 2.39167C123.011 5.82944 122.741 6.89048 125.565 12.3922C128.15 17.4299 128.184 19.7142 125.751 25.0404L124.292 28.2345L120.663 28.5642C110.999 29.4427 102.006 38.2496 98.2637 50.5018C97.8245 51.9408 96.9503 56.9442 96.322 61.6209C94.7591 73.2441 94.3124 75.004 91.3804 81.0726C85.8889 92.4376 75.3711 100.853 62.7092 104.011C57.2125 105.382 55.4112 106.375 54.2126 108.699C52.1752 112.647 54.0142 117.173 58.5932 119.48C69.4492 124.948 88.6857 122.887 102.977 114.725C105.477 113.297 107.575 112.129 107.639 112.129C107.702 112.129 107.929 113.448 108.143 115.06C108.356 116.671 108.83 118.647 109.194 119.451C109.732 120.632 109.671 121.229 108.882 122.569C107.63 124.693 107.649 125.671 108.965 126.865C110.199 127.983 112.024 128.116 112.982 127.157C113.487 126.651 114.37 126.786 116.587 127.709C130.616 133.552 149.822 127.848 160.026 114.808C165.631 107.643 168.682 100.145 170.307 89.5359C171.224 83.5487 171.227 82.9906 170.339 81.6324C169.814 80.8289 168.723 80.0051 167.917 79.8022C165.196 79.1179 140.898 79.9836 137.346 80.8917C135.512 81.3609 134.01 81.6621 134.01 81.5615C134.01 81.4615 135.583 78.1761 137.505 74.2616C142.815 63.4494 144.161 58.6448 144.162 50.5018C144.162 43.0943 143.368 40.4676 139.739 35.8752L137.902 33.5508L139.422 29.0903C142.565 19.866 142.678 13.7678 139.846 6.2306C137.257 -0.660631 134.164 -1.67342 128.122 2.39167ZM35.9542 1.55331C35.164 2.17772 33.3674 4.85503 31.9617 7.50327L29.4057 12.3178L30.3078 14.7561C30.8032 16.0968 31.0399 17.4666 30.8328 17.7997C30.6263 18.1323 29.3621 18.6997 28.0249 19.0602C25.6876 19.6892 25.4439 19.9857 21.7885 26.6473C19.696 30.4595 17.9898 33.9205 17.9968 34.3368C18.0038 34.7537 18.5201 35.749 19.1443 36.5484C20.4914 38.2746 20.641 40.7775 19.4558 41.7629C18.9894 42.1513 17.4973 42.5757 16.1404 42.7065C14.7835 42.8379 13.3761 43.2716 13.0129 43.6711C12.3765 44.371 2.87165 61.0593 0.943292 64.8622C0.214648 66.3 0 68.4581 0 74.3482C0 82.2319 0.453662 84.2225 2.25091 84.2225C3.95649 84.2225 5.32502 86.2091 5.11675 88.383C4.9694 89.9277 4.52444 90.5306 2.9517 91.3173C1.8628 91.862 0.757651 92.6469 0.494852 93.0614C0.232633 93.476 0.0139228 97.8957 0.0087016 102.882C-0.00348114 115.794 -0.244236 115.678 15.9907 110.654C21.7137 108.883 29.3981 106.512 33.0674 105.386C40.1201 103.222 41.7694 102.088 41.7694 99.4038C41.7694 97.1486 43.2951 95.269 45.1255 95.269C46.1923 95.269 47.3334 95.9911 48.7884 97.5858L50.9012 99.9021L54.0218 98.9881C71.3398 93.9155 76.2756 92.1922 78.4093 90.4742C80.7565 88.5836 81.0402 87.3998 79.3938 86.3615C78.6732 85.9068 75.294 86.7103 65.6064 89.6388L52.7733 93.5184L50.3751 91.7777C45.7439 88.4155 40.6422 89.9335 37.6041 95.5783L36.0493 98.4666L21.0703 103.164L6.09137 107.861L5.92603 102.126L5.76012 96.3911L7.60029 94.8399C12.1305 91.019 12.0946 84.0522 7.52835 81.0249L5.77462 79.8621L5.93299 74.6767L6.09137 69.4912L9.28209 68.4715C11.037 67.9104 16.2582 66.2756 20.8847 64.8389C48.2912 56.3268 46.9906 56.8686 46.9906 53.9628C46.9906 51.1629 45.4486 51.4082 26.8763 57.1576C17.0738 60.1925 8.97462 62.5971 8.8789 62.5006C8.78318 62.4047 10.4615 59.1803 12.6091 55.3355C16.4165 48.5187 16.5772 48.328 19.0886 47.6547C22.172 46.8286 25.1991 43.8542 25.7456 41.1147C25.9899 39.8914 25.7781 38.217 25.1626 36.5019L24.1961 33.8089L26.726 29.1148C29.075 24.7572 29.4358 24.37 31.7575 23.7183C34.6413 22.9096 37.1284 20.3131 37.1284 18.1119C37.1284 17.2945 36.8395 15.6596 36.4867 14.4794C35.9199 12.5829 36.022 11.9846 37.3668 9.32477C38.2039 7.67013 39.2864 6.31607 39.7732 6.31607C41.4875 6.31607 49.6424 8.17884 53.0819 9.35674C65.2479 13.5213 75.2557 21.7503 80.1068 31.5775C81.3772 34.1513 82.4737 37.0141 82.5427 37.9385C82.6843 39.8292 83.6548 39.3978 68.5854 44.1408C60.6358 46.6425 59.294 47.5548 60.0499 49.9408C60.8046 52.3239 61.4283 52.2012 82.5236 45.5129C83.4738 45.2117 83.5388 46.2158 83.5388 61.1471C83.5388 78.0325 83.6612 78.8063 86.2521 78.3063C88.5244 77.8673 88.7426 75.9871 88.7513 56.7332C88.7594 39.5339 88.6764 38.006 87.5504 34.6403C82.2956 18.9381 68.8424 7.53699 49.6812 2.54807C41.5884 0.440524 37.7178 0.160292 35.9542 1.55331ZM133.884 6.46141C135.351 8.24861 136.464 14.1131 136.219 18.7631C135.89 25.0159 133.597 30.4618 131.557 29.8334C130.832 29.6101 130.187 29.3845 130.122 29.3328C130.057 29.281 130.669 27.4165 131.483 25.1898C133.429 19.8642 133.203 14.7009 130.849 10.6742C129.979 9.1864 129.355 7.90268 129.463 7.82187C130.725 6.87536 132.607 5.73467 132.908 5.73467C133.117 5.73467 133.557 6.062 133.884 6.46141ZM47.6409 25.3334C45.0872 26.5944 43.5144 29.2496 43.5121 32.306C43.5092 35.5862 44.4676 37.4909 46.8705 38.9792C50.9836 41.5269 56.8586 39.8699 58.885 35.5903C62.067 28.8711 54.4853 21.9543 47.6409 25.3334ZM53.256 30.2694C53.6389 30.6531 53.9521 31.5165 53.9521 32.188C53.9521 32.8595 53.6389 33.7229 53.256 34.1066C52.8731 34.4903 52.0116 34.8042 51.3416 34.8042C49.0257 34.8042 47.7999 31.9002 49.4271 30.2694C49.81 29.8857 50.6715 29.5717 51.3416 29.5717C52.0116 29.5717 52.8731 29.8857 53.256 30.2694ZM127.966 34.495C131.448 35.5316 134.256 37.5287 136.144 40.3141C137.828 42.7978 139.216 47.1123 139.225 49.889L139.231 51.8925L137.313 50.0297L135.396 48.1675L133.764 49.8745L132.132 51.5815L133.382 53.3419C134.07 54.3105 135.427 55.7256 136.399 56.4867L138.163 57.871L136.664 62.3448C135.041 67.1907 132.452 72.6133 128.352 79.7557C126.469 83.0342 125.076 84.7161 123.35 85.7911C116.916 89.8004 112.276 95.0323 109.93 100.924C108.316 104.976 105.467 107.387 97.752 111.224C89.4834 115.336 84.2837 116.496 74.2567 116.461C66.9552 116.435 65.4115 116.26 62.563 115.131C56.7345 112.821 57.4567 111.101 65.1458 108.981C74.1337 106.503 80.0093 103.226 86.6744 96.9783C95.3114 88.8812 100.082 78.4301 101.52 64.4552C102.224 57.6093 103.923 50.2768 105.541 47.096L106.618 44.9786L110.803 45.2693L114.988 45.56L116.056 48.3861C117.323 51.7425 118.511 53.178 120.415 53.657C122.105 54.082 125.888 52.614 125.888 51.5332C125.888 50.1989 124.192 48.2635 122.853 48.0704C121.903 47.9338 121.295 47.1286 120.517 44.9786C119.083 41.0158 117.778 40.0368 113.931 40.0368C112.212 40.0368 110.805 39.7885 110.805 39.485C110.805 38.5007 114.884 35.7827 117.959 34.7176C121.643 33.442 124.233 33.3845 127.966 34.495ZM57.3581 63.2959C52.7153 65.7546 50.4951 70.447 51.7018 75.2505C53.1017 80.8202 58.6344 83.8667 64.2663 82.1679C73.0025 79.533 74.4725 67.1965 66.5102 63.3337C63.4425 61.8454 60.123 61.832 57.3581 63.2959ZM65.0419 68.4628C67.0886 70.1238 66.954 73.9836 64.7843 75.854C59.5028 80.4063 53.629 73.4999 58.57 68.5482C60.0766 67.0383 63.2354 66.9965 65.0419 68.4628ZM24.1584 72.0296C20.4142 73.154 18.3002 76.6144 18.715 80.94C18.9453 83.3417 19.3508 84.1865 21.0007 85.7022C23.8451 88.3144 26.7133 88.7347 30.0276 87.0243C36.4983 83.6853 36.3365 75.0412 29.7503 72.229C27.667 71.3395 26.5851 71.3011 24.1584 72.0296ZM28.4954 77.7662C29.6627 78.7138 29.7723 79.1011 29.274 80.5278C28.2367 83.501 23.7854 82.9295 23.7854 79.8237C23.7854 78.6458 25.6453 76.6644 26.751 76.6644C26.9633 76.6644 27.7488 77.1604 28.4954 77.7662ZM164.032 85.1702C164.837 85.3865 165.337 85.969 165.337 86.6894C165.337 89.7487 162.622 99.023 160.29 103.931C153.261 118.721 137.114 127.036 122.236 123.528C120.386 123.091 118.689 122.544 118.465 122.312C118.24 122.08 119.713 120.358 121.738 118.485L125.418 115.08L133.05 115.204C140.618 115.326 140.683 115.316 140.871 113.987C141.18 111.803 140.138 111.183 135.956 111.068C133.819 111.009 131.976 110.865 131.86 110.749C131.743 110.633 133.452 109.302 135.656 107.793L139.665 105.048L145.974 104.955L152.284 104.862V103.146C152.284 101.612 152.023 101.364 149.837 100.82L147.389 100.211L150.417 98.1515C153.611 95.9794 154.425 94.2417 152.859 92.9388C152.071 92.2829 151.529 92.3568 149.357 93.4143C143.995 96.0248 126.511 107.78 120.667 112.703C116.714 116.033 114.372 117.639 113.996 117.278C113.677 116.972 113.416 114.31 113.416 111.361C113.416 106.461 113.581 105.662 115.348 102.067C119.831 92.9411 129.348 87.1853 142.868 85.4225C147.214 84.8562 162.197 84.6778 164.032 85.1702Z" fill="black"/>
</svg>
