<svg width="171" height="150" viewBox="0 0 171 150" fill="none" xmlns="http://www.w3.org/2000/svg">
<path fill-rule="evenodd" clip-rule="evenodd" d="M107.171 0.694155C104.227 1.70277 101.988 3.2165 99.485 5.892C95.071 10.6097 92.3874 17.0444 91.4884 25.0667L91.3054 26.7002L89.2866 27.4734C88.1766 27.8986 86.4045 28.8182 85.3486 29.5163C83.5759 30.689 83.3632 30.7551 82.5658 30.3824C78.4281 28.4471 76.8168 28.0161 73.7885 28.0343C71.5964 28.0475 70.279 28.2292 68.99 28.6961C61.3909 31.449 56.3389 39.2067 55.7593 49.0125C55.6028 51.6634 56.2646 61.5371 56.7121 63.2257C56.8497 63.7444 56.7691 63.8046 56.1947 63.6139C55.8206 63.4899 54.3489 63.0537 52.9244 62.6445L50.3344 61.901L50.3151 60.6373C50.2828 58.5044 50.2141 58.2377 49.484 57.4165C48.5234 56.3354 46.9921 56.3752 44.6774 57.5415C43.6734 58.0476 42.1398 58.7233 41.2693 59.0436C39.5319 59.6827 36.6475 61.2318 35.503 62.14L34.7729 62.7196L33.9576 60.9669C31.4361 55.5485 27.0777 52.8475 24.6163 55.1781C23.1322 56.5831 22.4694 59.1087 22.4746 63.3403C22.4769 65.3439 22.4006 66.9875 22.3054 66.993C19.9479 67.129 12.8115 69.017 9.79529 70.3031C8.88331 70.6917 7.88961 72.2705 7.88788 73.3325C7.8873 73.7085 8.21048 74.5529 8.60618 75.2089C9.00188 75.8649 9.32563 76.5106 9.32563 76.6437C9.32563 76.7767 8.7328 77.5354 8.00817 78.3293C5.06072 81.5588 2.07183 87.6782 0.758691 93.1716C0.0996736 95.9291 0.0127651 96.9176 0.000966144 101.791C-0.0108329 106.553 0.0783823 107.688 0.662577 110.209C4.40056 126.345 16.639 137.287 32.7078 138.86C38.1535 139.393 44.8651 138.463 49.6149 136.516C51.8354 135.606 52.2507 135.123 52.1468 133.572C52.0829 132.617 51.8596 132.124 51.2694 131.629L50.4774 130.967L48.3915 131.727C40.911 134.453 32.8667 134.684 25.9651 132.372C15.5391 128.878 8.30574 121.056 5.40922 110.143C4.32372 106.053 4.13666 99.7913 4.97266 95.5412C5.98623 90.3909 8.23062 85.5483 11.347 81.7871L13.2248 79.5215L15.3759 80.3501C16.5593 80.8057 18.1424 81.2794 18.8943 81.4028C19.6463 81.5261 20.2613 81.7249 20.2613 81.8441C20.2613 81.9632 19.7977 83.5861 19.231 85.4499C17.9585 89.6368 17.6949 91.8988 18.3487 93.0217C20.3839 96.5164 28.8386 92.4098 33.2022 85.807L34.7087 83.5278L35.7586 83.9912C40.4485 86.0608 47.2525 85.8967 50.6889 83.6314C52.1154 82.6908 52.5952 81.8298 52.5442 80.3022C52.4967 78.8807 52.1154 78.4297 48.4638 75.4706C46.8018 74.1239 45.3267 72.9103 45.1854 72.7737C45.0444 72.637 45.4464 71.8246 46.0787 70.9682C46.7112 70.1121 47.574 68.7901 47.9961 68.0308C48.8436 66.5064 48.5107 66.5478 52.061 67.5266C54.3397 68.1551 58.7301 70.5052 60.9408 72.2802C66.4239 76.6825 70.4511 83.9588 71.6454 91.621C72.0212 94.0307 72.2678 94.8194 72.8264 95.3958C73.7165 96.3141 74.6391 96.3215 75.659 95.4191C76.4366 94.7307 76.4519 94.6546 76.2864 92.2621C75.9327 87.1452 73.739 80.8523 70.6914 76.2111C68.7701 73.2853 65.1061 69.2336 63.0839 67.7986C62.3403 67.2711 61.6666 66.5439 61.5863 66.1826C61.5063 65.8215 61.1607 62.7575 60.8185 59.3738C60.0366 51.642 60.1462 47.138 61.1949 43.9357C63.6667 36.3881 69.5923 32.0435 75.7851 33.2382C76.8827 33.45 78.2375 33.868 78.7956 34.1675L79.8103 34.7122L78.8488 36.1958C77.5587 38.1871 76.2953 41.0782 75.5123 43.8318C74.6558 46.8427 74.4397 54.7517 74.9468 64.5289L75.3166 71.6663L76.1468 72.6004C76.8352 73.3746 77.1351 73.5003 77.9008 73.3338C79.5403 72.9777 79.93 72.0685 79.7211 69.0876C79.2632 62.5535 78.9489 52.9835 79.115 50.6314C79.5455 44.538 81.0284 40.6855 84.4237 36.8395C87.7559 33.0647 91.4691 31.3807 96.4817 31.3706C104.243 31.3551 110.809 37.0894 112.791 45.6126C113.197 47.3569 113.253 48.6599 113.119 53.2218C113.031 56.2492 112.753 60.5476 112.502 62.7737C111.047 75.6729 109.644 85.433 108.167 92.9142C107.619 95.6898 107.171 98.2507 107.171 98.6052C107.171 99.4963 108.349 100.657 109.253 100.657C111.168 100.657 111.433 100.092 112.749 93.1908C115.605 78.2215 118.05 56.6844 117.728 49.3363C117.521 44.6086 116.314 40.3112 114.288 37.0797C113.584 35.9578 113.687 35.8542 116.472 34.8857C119.378 33.8752 122.747 34.107 125.393 35.4999C130.369 38.1201 133.462 44.1883 133.436 51.279C133.423 54.5127 133.381 54.8236 131.294 66.983L129.82 75.5635L127.036 78.827C121.18 85.6924 117.674 93.4498 116.539 102.054C115.981 106.277 115.974 108.204 116.513 109.377C117.215 110.904 118.854 111.179 119.944 109.953C120.518 109.307 120.626 108.774 120.779 105.825C121.256 96.6508 125.156 87.6882 131.71 80.7079C139.443 72.4719 151.356 66.8039 164.23 65.2355C165.844 65.0386 165.899 65.058 166.205 65.9271C166.746 67.4596 166.639 79.5082 166.047 83.8202C164.421 95.6623 160.551 105.008 154.378 112.003C148.529 118.631 140.672 122.878 132.496 123.832C130.275 124.091 129.33 124.853 129.33 126.383C129.33 126.936 129.544 127.732 129.806 128.152C130.263 128.886 130.386 128.909 132.899 128.734C137.36 128.422 142.396 126.812 147.029 124.219C160.339 116.765 168.961 101.547 170.788 82.2799C171.178 78.1655 170.997 65.374 170.518 63.2594C170.346 62.4981 169.843 61.5789 169.298 61.0294L168.371 60.0946L164.75 60.2724C156.238 60.6904 144.767 64.595 137.563 69.5267C136.472 70.2734 135.531 70.83 135.472 70.7636C135.413 70.6972 135.631 69.1271 135.956 67.2747C137.229 60.0263 137.964 54.1106 137.961 51.1284C137.954 39.2297 130.824 29.863 121.272 29.2038C118.303 28.9988 115.43 29.617 112.649 31.0588L110.702 32.069L108.721 30.5877C107.631 29.773 106.486 28.9085 106.177 28.6663C105.648 28.2518 105.635 28.0809 105.964 25.7013C106.434 22.3022 107.505 19.7283 109.186 17.9588C110.481 16.5963 111.013 16.3243 114.022 15.4863C117.418 14.5408 119.733 9.58291 118.689 5.48823C117.505 0.84569 112.64 -1.17931 107.171 0.694155ZM113.018 5.19132C114.003 5.78191 114.347 6.48779 114.356 7.94291C114.364 9.05644 114.212 9.4356 113.48 10.1285C112.935 10.6446 112.244 10.9668 111.681 10.9671C110.269 10.9675 107.473 12.6557 105.81 14.5127C103.874 16.6737 102.412 19.9903 101.733 23.7631C101.446 25.3623 101.095 26.663 100.953 26.6533C100.812 26.6436 99.6222 26.515 98.3099 26.3674L95.9237 26.0993L96.1027 24.604C96.8451 18.3979 99.1897 13.0388 102.806 9.28277C105.985 5.98138 110.989 3.97612 113.018 5.19132ZM30.6433 64.5782C31.2643 66.0158 31.7765 67.4 31.7817 67.6542C31.7993 68.5433 33.1734 69.8971 34.0583 69.8971C34.2284 69.8971 35.1111 69.1291 36.0199 68.1907C36.9284 67.252 38.131 66.166 38.6916 65.7772C39.5342 65.193 44.7635 62.7737 45.1839 62.7737C45.2521 62.7737 44.9638 63.5385 44.5431 64.4736C43.5692 66.6385 42.2138 68.4206 40.4943 69.7958C38.8269 71.1298 38.6893 71.3662 38.6836 72.9074C38.6798 73.9575 38.8119 74.2168 39.5898 74.6883C41.3429 75.7503 46.4493 79.6504 46.4493 79.9272C46.4493 80.4414 42.6339 80.6852 40.4822 80.309C39.3334 80.1079 37.3497 79.4908 36.0743 78.9374C32.822 77.5263 32.7127 77.5746 30.5365 81.3898C29.2254 83.6887 26.7102 86.4151 24.7558 87.6558C23.8347 88.2409 23.0364 88.6696 22.9823 88.6085C22.8504 88.4602 24.6479 82.7452 25.4045 80.9061C26.1591 79.0731 26.1611 78.6094 25.4203 77.55C24.8692 76.7615 24.6563 76.6964 22.6145 76.6919C21.3995 76.6893 19.5922 76.4714 18.5988 76.2078C16.645 75.6898 13.9672 74.3101 14.3894 74.0394C14.5324 73.9478 15.6208 73.5245 16.8079 73.0991C18.6696 72.4317 19.5358 72.3256 23.1077 72.3256C27.2354 72.3256 27.2509 72.3226 27.8095 71.4814C28.3686 70.6392 28.3684 70.6305 27.6253 67.9838C26.892 65.3731 26.6489 61.9982 27.067 60.2413C27.2428 59.503 27.2656 59.5115 28.3799 60.727C29.0038 61.4076 30.0219 63.1402 30.6433 64.5782ZM83.4046 78.44C81.5902 79.3538 81.3499 80.0891 81.1433 85.3592C80.8998 91.5728 80.393 94.2531 79.0053 96.6667C77.6145 99.0854 76.533 99.9888 72.0753 102.455C67.3192 105.086 65.5574 106.381 62.9647 109.152C54.9811 117.685 53.6686 130.16 59.781 139.419C63.2695 144.704 68.8962 147.607 75.6475 147.607C77.4108 147.607 78.9763 147.743 79.1268 147.909C79.277 148.076 80.4362 148.603 81.7024 149.082C85.624 150.565 90.1974 150.234 93.7207 148.212C94.6517 147.677 95.5142 147.569 99.3411 147.505C103.414 147.437 104.07 147.344 105.972 146.57C108.911 145.373 110.942 143.922 113.233 141.38C119.956 133.924 120.397 121.228 114.25 112.088C111.679 108.264 108.783 105.808 102.854 102.421C96.0572 98.5375 94.5087 95.2009 94.5087 84.4396V80.5729L93.5242 79.3632L92.54 78.1538L88.4161 78.0732C85.3987 78.0146 84.0542 78.1127 83.4046 78.44ZM144.909 82.4441C144.53 82.8028 143.943 84.3768 143.31 86.7343C142.761 88.7823 142.142 90.9977 141.936 91.6573C141.571 92.8229 135.199 101.567 134.685 101.608C134.538 101.62 134.511 100.38 134.623 98.7202C134.893 94.6964 134.346 93.534 132.184 93.534C131.722 93.534 131.099 93.8099 130.8 94.1466C130.315 94.6919 130.232 95.5088 130.045 101.564L129.834 108.369L127.379 111.556C122.388 118.033 122.136 118.422 122.136 119.616C122.136 121.452 123.564 122.509 125.132 121.832C125.382 121.724 127.08 119.686 128.906 117.302C130.776 114.862 132.505 112.898 132.864 112.807C133.216 112.718 135.51 112.351 137.964 111.99C143.62 111.16 144.399 110.92 144.823 109.873C145.335 108.609 145.229 107.831 144.421 106.922C143.738 106.154 143.561 106.11 142.047 106.331C138.894 106.79 136.812 107.004 136.812 106.868C136.812 106.671 143.25 98.343 143.949 97.6358C144.352 97.2285 145.827 96.7962 148.66 96.2545C150.928 95.8206 153.202 95.254 153.712 94.9949C154.841 94.4215 155.22 93.1474 154.619 91.9422C153.901 90.5036 153.246 90.3527 150.055 90.8896C148.47 91.1564 147.111 91.306 147.036 91.2221C146.962 91.1386 147.274 89.5662 147.729 87.7287C148.389 85.0652 148.497 84.1971 148.266 83.4494C147.774 81.8619 146.067 81.351 144.909 82.4441ZM90.219 87.8676C90.3128 90.5389 90.5563 93.453 90.7597 94.3435C92.011 99.8204 94.6454 103.185 100.265 106.486C105.142 109.35 107.008 110.755 109.066 113.116C114.08 118.867 115.486 127.367 112.514 133.966C110.962 137.411 107.565 140.658 104.325 141.793C102.508 142.429 99.1131 142.97 99.1131 142.624C99.1131 142.508 99.4519 141.811 99.8657 141.073C102.461 136.446 103.249 127.996 101.716 121.218C100.892 117.576 98.9005 113.182 97.962 112.937C96.4926 112.555 95.0842 113.619 95.0842 115.113C95.0842 115.429 95.5334 116.864 96.0822 118.302C97.3925 121.734 97.962 124.914 97.962 128.797C97.962 135.951 95.4149 141.573 91.0915 143.959C89.6693 144.744 89.1395 144.853 86.7325 144.854C84.2199 144.855 83.8346 144.768 82.0872 143.8C77.8499 141.453 75.5151 136.471 75.5151 129.777C75.5151 125.678 76.2608 122.476 78.1498 118.462C79.5401 115.508 79.6152 115.232 79.2793 114.319C78.622 112.534 76.6717 112.275 75.4792 113.815C74.562 114.999 72.675 119.32 71.8929 122.028C71.18 124.495 71.0954 125.266 71.0761 129.475C71.052 134.708 71.5619 137.349 73.2543 140.759C73.7272 141.712 74.0731 142.535 74.0233 142.589C73.9732 142.642 73.2848 142.567 72.4935 142.423C65.5297 141.155 60.5506 134.649 60.5506 126.816C60.5506 121.414 62.2053 117.206 66.0014 112.955C68.3201 110.358 68.7759 110.018 73.7712 107.145C78.2378 104.576 79.3553 103.783 80.8307 102.132C84.0409 98.5414 85.2283 94.9376 85.4767 88.0295C85.563 85.6253 85.6862 83.4698 85.7503 83.2393C85.8349 82.9349 86.4393 82.8462 87.9576 82.9155L90.0481 83.0107L90.219 87.8676Z" fill="black"/>
</svg>
