<svg width="150" height="155" viewBox="0 0 150 155" fill="none" xmlns="http://www.w3.org/2000/svg">
<path fill-rule="evenodd" clip-rule="evenodd" d="M68.5123 1.06258C66.6523 2.04535 65.3909 3.62525 61.7048 9.59049C59.7114 12.8162 59.1016 15.4787 59.7582 18.0871C60.3597 20.4779 60.3139 20.6163 56.7405 27.1017C54.7449 30.7242 49.4125 40.5942 44.8907 49.0351C40.3689 57.4759 34.4796 68.4002 31.8033 73.3112C29.1271 78.2223 25.9359 84.1239 24.7118 86.426C20.59 94.1765 14.375 105.609 8.17666 116.841C0.340896 131.04 -0.00277312 131.76 1.64055e-05 133.975C0.00280593 136.323 1.81488 139.313 3.66098 140.015C5.74085 140.806 8.68491 140.684 12.3537 139.654C14.1267 139.157 15.9371 138.888 16.3762 139.056C16.9581 139.279 17.2287 140.636 17.3732 144.051C17.5489 148.199 17.7575 148.983 19.1852 150.854C23.8275 156.941 33.3995 156.194 36.8245 149.478C37.7182 147.726 37.9369 146.178 37.9436 141.558C37.9487 138.399 38.1562 135.494 38.4056 135.101C38.655 134.708 40.197 133.877 41.8322 133.256C45.27 131.949 45.7236 132.243 45.7376 135.785C45.7537 139.999 50.0156 143.925 54.5441 143.899C56.5302 143.886 60.1164 141.812 61.5938 139.822C62.5411 138.545 62.7983 137.256 62.9545 133.01C63.0962 129.156 63.374 127.584 64.005 127.06C64.477 126.668 68.0309 125.527 71.9021 124.525C97.2065 117.975 100.718 117.052 117.716 112.48C125.044 110.509 127.047 110.178 130.844 110.304C134.159 110.415 136.671 110.104 140.501 109.109C145.901 107.706 147.783 106.512 149.355 103.489C150.865 100.585 149.649 90.6411 146.489 80.0533C140.286 59.2712 128.167 39.7521 111.445 23.611C101.03 13.5578 89.4388 5.54446 79.6291 1.61563C74.7285 -0.34767 71.4865 -0.508954 68.5123 1.06258ZM80.7076 8.52736C104.324 19.9444 125.778 43.8344 137.438 71.7001C139.783 77.3048 142.61 87.4093 143.701 94.0816L144.723 100.342L143.519 101.623C142.68 102.517 140.87 103.222 137.539 103.953C133.038 104.94 132.702 104.946 131.713 104.05C131.13 103.523 130.497 101.938 130.287 100.484C129.832 97.3117 127.652 88.9574 126.183 84.7517C116.237 56.2777 95.5545 32.462 69.6477 19.6548C67.5204 18.6034 65.6213 17.3293 65.4277 16.8237C65.0098 15.7349 68.2217 9.42697 70.378 7.10093C71.202 6.21247 72.4377 5.50763 73.1675 5.51042C73.8883 5.51321 77.2815 6.871 80.7076 8.52736ZM69.0859 25.7908C83.7253 33.14 97.6466 45.8178 107.787 61.0336C112.542 68.168 118.316 79.546 120.674 86.426C123.141 93.6245 125.624 104.842 124.75 104.842C124.56 104.842 122.085 105.457 119.248 106.209C111.822 108.177 104.125 110.186 94.5625 112.655C89.9598 113.844 83.6834 115.479 80.6149 116.29C77.5465 117.1 72.1828 118.487 68.6953 119.372C58.8115 121.882 57.8943 122.85 57.4452 131.241C57.1997 135.825 56.9671 136.9 56.0833 137.547C53.551 139.399 51.8193 137.852 51.2776 133.254C50.9417 130.404 50.5668 129.447 49.3913 128.435C47.3354 126.666 45.4581 126.331 42.1703 127.145C33.7577 129.23 32.3562 131.109 32.3562 140.301C32.3562 146.105 32.3233 146.259 30.7255 147.857C29.7424 148.84 28.5067 149.488 27.614 149.488C26.7214 149.488 25.4856 148.84 24.5026 147.857C23.0018 146.356 22.8719 145.905 22.8719 142.203C22.8719 137.278 21.6662 134.952 18.446 133.663C16.4219 132.853 15.9455 132.875 11.4666 133.981C3.87299 135.856 3.49863 137.352 16.4565 114.051C19.0915 109.313 21.2149 105.399 25.2396 97.8664C27.5359 93.5693 32.7468 83.9007 36.8195 76.3806C40.8927 68.8606 46.1136 59.192 48.4216 54.8948C50.7297 50.5977 53.7083 45.0728 55.0401 42.6172C56.3723 40.1617 59.1568 34.9538 61.2278 31.0445C63.2993 27.1352 65.0767 23.9335 65.1783 23.9291C65.2798 23.9251 67.0383 24.7628 69.0859 25.7908ZM66.298 45.7882C65.1744 46.0873 63.1949 47.2403 61.8984 48.3503C54.3181 54.8407 55.6337 66.8622 64.4357 71.5265C67.748 73.2822 73.5809 73.2113 77.1799 71.3725C83.4223 68.1831 86.3385 60.518 83.7437 54.1197C80.9848 47.3173 73.6707 43.8243 66.298 45.7882ZM73.8442 51.4789C77.1995 52.8808 79.3496 56.8816 78.7917 60.6832C78.6288 61.7949 77.6943 63.3993 76.4463 64.7119C74.4897 66.7695 74.1845 66.8934 71.0776 66.8895C66.0068 66.8839 63.3294 64.689 62.6884 60.0124C62.2281 56.6533 64.0134 53.4053 67.1828 51.836C69.8597 50.5106 71.3381 50.4314 73.8442 51.4789ZM93.8373 74.26C93.4691 74.6283 93.1678 75.5826 93.1678 76.3806C93.1678 78.4031 94.1441 79.171 96.7155 79.171C98.6291 79.171 99.2411 79.5165 101.296 81.7554C103.312 83.9509 103.888 84.2846 105.132 83.9721C105.937 83.7701 106.881 82.9776 107.23 82.2108C107.78 81.0048 107.645 80.4998 106.228 78.4595C105.285 77.1028 103.536 75.5687 102.108 74.8459C99.3884 73.4703 94.9419 73.155 93.8373 74.26ZM48.5818 76.8745C47.712 77.4516 47.4877 80.9596 48.3028 81.2348C50.2069 81.8782 52.5987 83.9291 53.3965 85.6022C54.4113 87.7307 56.456 88.6649 57.9668 87.6906C59.1507 86.9266 59.0653 83.0675 57.8223 81.17C55.8741 78.1961 50.4156 75.6585 48.5818 76.8745ZM81.6872 83.2818C79.0043 84.4961 75.7963 87.5946 74.6816 90.0484C73.4202 92.8265 73.3354 98.0048 74.5053 100.814C76.3319 105.2 82.3511 109.307 86.9522 109.307C89.4042 109.307 93.3218 107.756 95.5863 105.889C98.7597 103.272 100.038 100.297 100.044 95.5153C100.048 92.029 99.8286 91.1339 98.4065 88.8329C95.9495 84.8578 92.3622 82.8521 87.3639 82.6584C84.8634 82.5613 82.7718 82.7912 81.6872 83.2818ZM90.2678 88.8804C95.2527 91.4587 95.9891 97.7163 91.7457 101.443C90.1105 102.879 89.3143 103.168 86.9918 103.168C83.7794 103.168 81.9695 102.184 80.346 99.5563C76.4602 93.2679 83.6968 85.4811 90.2678 88.8804ZM39.392 92.5664C34.931 94.3093 32.3467 97.3932 31.2516 102.282C30.0761 107.529 33.0809 113.822 37.9375 116.284C44.9001 119.813 53.6386 116.634 56.3562 109.584C56.7104 108.664 57.0039 106.474 57.0078 104.715C57.0217 98.9363 53.5984 94.1927 48.049 92.3013C44.8025 91.1947 42.7416 91.2578 39.392 92.5664ZM48.8942 99.4357C53.8082 103.941 50.704 112.081 44.0722 112.081C41.4573 112.081 39.6263 111.075 38.0915 108.798C34.8104 103.928 38.251 97.6449 44.2201 97.6053C46.4645 97.5902 47.192 97.8754 48.8942 99.4357Z" fill="black"/>
</svg>
