<svg width="135" height="120" viewBox="0 0 135 120" fill="none" xmlns="http://www.w3.org/2000/svg">
<path d="M121.054 0.797852C122.53 0.315917 124.628 0.435672 126.702 1.03613C128.771 1.63512 130.718 2.68437 131.905 3.95605C134.573 6.81529 135.267 11.4815 133.598 14.916L133.429 15.2441C133.29 15.4997 132.933 15.9991 132.376 16.708C131.828 17.4057 131.11 18.279 130.27 19.2676C128.589 21.2443 126.431 23.6754 124.202 26.083C119.741 30.9012 115.541 35.4938 114.877 36.2803L113.688 37.6895L113.287 38.165L113.837 38.4541L118.151 40.7227C120.713 42.0697 123.397 44.0497 125.654 46.1553C127.919 48.2682 129.711 50.4694 130.531 52.2471C131.014 53.2924 131.288 54.0927 131.442 55.1611C131.599 56.2479 131.632 57.6238 131.608 59.8271C131.536 66.5106 130.682 71.8829 128.746 77.8545C121.881 99.0298 105.603 113.167 82.293 118.144C76.9174 119.292 74.7552 119.479 66.417 119.499C59.3455 119.517 55.4299 119.276 51.8408 118.614C23.9098 113.463 4.63192 93.7823 1.07129 66.8379C0.392728 61.7031 0.291768 58.1315 0.914062 55.2188C1.53162 52.3283 2.87074 50.0468 5.16113 47.5127C7.91962 44.4613 14.3198 40.183 19.3555 38.0508C27.5583 34.5769 39.6946 31.7932 51.459 30.6982C55.8235 30.2922 63.347 30.2029 70.6387 30.3613C77.9363 30.5199 84.946 30.9249 88.2949 31.4961C89.6623 31.7291 90.9523 31.8959 91.9316 31.9756C92.4196 32.0153 92.8416 32.0341 93.1611 32.0273C93.3192 32.024 93.4678 32.0144 93.5928 31.9932C93.6549 31.9826 93.7254 31.9667 93.7939 31.9414C93.8535 31.9194 93.9619 31.871 94.0537 31.7695C94.175 31.6353 95.103 30.4471 96.4688 28.6826C97.8493 26.8991 99.7023 24.4952 101.694 21.9023C109.174 12.1671 112.992 7.21969 115.474 4.52637C116.709 3.18524 117.591 2.42846 118.406 1.92188C119.22 1.41642 119.992 1.14425 121.054 0.797852ZM6.11816 70.6484L6.4873 72.3643C6.9203 74.3768 7.94765 77.3804 9.15039 80.3604C10.3542 83.343 11.7497 86.3406 12.9336 88.3398C14.6963 91.3159 17.605 94.8187 20.8184 98.0254C24.0322 101.233 27.5808 104.173 30.6396 106.01C36.4298 109.487 41.5148 111.598 48.2207 113.311C51.7691 114.216 57.5524 114.798 63.3652 114.992C69.1796 115.187 75.0866 114.997 78.8857 114.338C98.1984 110.989 113.623 100.196 121.32 84.5742C122.236 82.7167 123.43 79.7145 124.393 77.0088C124.875 75.6541 125.301 74.3655 125.608 73.3242C125.762 72.8039 125.888 72.3398 125.975 71.958C126.059 71.589 126.117 71.2571 126.117 71.0195C126.117 70.8797 126.07 70.6877 125.897 70.5488C125.743 70.4243 125.57 70.4118 125.47 70.416C125.276 70.4243 125.078 70.507 124.923 70.585C124.584 70.7552 124.149 71.0577 123.694 71.4404C120.823 73.856 116.156 76.293 110.454 78.4365C104.762 80.5765 98.0735 82.4112 91.1875 83.6396C72.514 86.9712 49.4942 86.2753 32.4971 81.8721C27.5147 80.5815 19.4568 77.7286 16.3506 76.1621C14.7911 75.3755 12.0213 73.6967 10.2109 72.4385L6.89258 70.1318L5.85156 69.4092L6.11816 70.6484ZM67.7158 49.4619C64.9429 49.3911 61.8955 49.4436 59.8174 49.6543C57.4635 49.8933 52.8387 50.9686 49.5176 52.042C45.3236 53.3974 42.0206 54.0946 38.3672 54.4004C35.3825 54.6499 33.4835 54.8686 31.834 55.2793C30.1744 55.6926 28.7859 56.2957 26.8145 57.2832C23.9454 58.7201 21.2772 60.61 19.1787 62.6055C17.2207 64.4675 15.7217 66.4558 15.0449 68.2852L14.9209 68.6494C14.7871 69.0771 14.7623 69.5195 14.9609 69.9668C15.1504 70.3932 15.5153 70.7591 16.0166 71.1104C17.0112 71.8072 18.761 72.5901 21.5469 73.7002C44.3992 82.8077 77.8346 83.9359 102.71 76.4502C106.237 75.389 109.924 73.9959 112.734 72.7363C114.138 72.1073 115.335 71.5062 116.188 70.9912C116.611 70.7351 116.967 70.4902 117.223 70.2646C117.35 70.1523 117.468 70.032 117.557 69.9053C117.64 69.786 117.734 69.6101 117.734 69.3975C117.734 68.9016 117.482 68.2739 117.144 67.6436C116.792 66.9882 116.3 66.2439 115.73 65.4873C114.593 63.9767 113.109 62.372 111.727 61.2793C108.544 58.7639 105.845 57.2982 101.909 55.9443L99.2051 55.0137L98.7842 54.8691L98.5918 55.2705L97.6758 57.1816C97.1381 58.3044 96.5909 60.6003 96.4336 62.3125C96.3372 63.3614 96.2118 64.1396 96.0146 64.7139C95.8215 65.2764 95.5725 65.6043 95.249 65.8066C94.9131 66.0166 94.4276 66.1351 93.6768 66.1338C92.927 66.1325 91.9675 66.0131 90.7227 65.7998C89.0963 65.521 88.0245 65.3823 86.9824 65.4307C86.1984 65.467 85.446 65.6086 84.501 65.8555L83.4824 66.1377C76.2195 68.2359 74.9021 68.499 72.0391 68.499C69.3385 68.499 65.7736 67.8538 62.5889 66.917C60.9997 66.4495 59.5171 65.9137 58.2959 65.3555C57.0626 64.7917 56.1385 64.2243 55.627 63.7129C54.9315 63.0174 54.7327 62.308 54.8887 61.5869C55.0531 60.8271 55.6303 59.9685 56.6797 59.0645C58.774 57.2605 62.5444 55.4509 67.6289 54.0215C68.981 53.6416 70.3577 53.2184 71.4883 52.8428C72.6022 52.4727 73.5197 52.1349 73.9209 51.9248C74.2184 51.769 74.4635 51.6365 74.6406 51.5234C74.7289 51.4671 74.8172 51.405 74.8916 51.3369C74.9575 51.2766 75.0645 51.1664 75.1133 51.0039C75.1757 50.7958 75.1182 50.5964 75.0029 50.4541C74.9112 50.3408 74.7929 50.2757 74.7168 50.2383C74.6377 50.1994 74.5439 50.163 74.4414 50.1289L74.1162 50.0312C73.5603 49.874 72.6387 49.7512 71.541 49.6582C70.4311 49.5642 69.1043 49.4974 67.7158 49.4619ZM67.5439 34.6973C60.2905 34.6479 52.9309 34.8156 49.335 35.2314C37.1642 36.6385 25.9892 39.6341 17.916 43.6719C13.4449 45.908 11.3656 47.3932 8.3916 50.4873C7.34127 51.5802 6.35127 53.2246 5.68164 54.7744C5.3455 55.5524 5.08365 56.323 4.93457 57.0049C4.80789 57.5844 4.74981 58.1558 4.83984 58.624L4.8877 58.8184C4.93801 58.9835 5.02002 59.2966 5.11133 59.668L5.3916 60.8701C5.48912 61.3143 5.80075 61.9054 6.17188 62.498C6.55492 63.1097 7.04066 63.7841 7.54004 64.4102C8.0386 65.0351 8.55959 65.6236 9.01465 66.0605C9.24104 66.2779 9.46129 66.4683 9.66211 66.6074C9.76257 66.677 9.86842 66.7403 9.97461 66.7881C10.0753 66.8334 10.2099 66.8799 10.3604 66.8799C10.5221 66.8799 10.6491 66.8153 10.7217 66.7695C10.8007 66.7197 10.8689 66.6575 10.9258 66.5996C11.0402 66.4831 11.1545 66.3325 11.2617 66.1689C11.4245 65.9208 11.5946 65.6098 11.7529 65.2686L11.9062 64.9189C12.1857 64.2443 12.7815 63.3605 13.6221 62.3604C14.4559 61.3682 15.5064 60.2895 16.665 59.2256C18.9876 57.0929 21.7115 55.051 23.9512 53.8975C26.6071 52.5294 28.3506 51.7408 30.2598 51.2168C32.1734 50.6916 34.2757 50.4259 37.6582 50.1377C41.0259 49.8511 44.4536 49.2089 46.3926 48.4834C55.6999 45.0021 62.8791 44.4832 78.9385 46.2031L82.3438 46.5684L82.6172 46.5977L82.7881 46.3818L86.3848 41.8438C87.3779 40.5908 88.2565 39.4216 88.8721 38.5459C89.1789 38.1095 89.426 37.7381 89.5898 37.4629C89.6702 37.3279 89.7393 37.2007 89.7852 37.0938C89.8067 37.0433 89.8343 36.9729 89.8486 36.8955C89.8557 36.857 89.8641 36.7931 89.8555 36.7178C89.8468 36.6424 89.8152 36.5139 89.7051 36.4033V36.4023L89.6484 36.3535C89.5922 36.3105 89.5391 36.2858 89.5166 36.2754C89.4728 36.2551 89.4263 36.238 89.3838 36.2236C89.2977 36.1945 89.1914 36.1652 89.0732 36.1357C88.8345 36.0762 88.513 36.0084 88.1357 35.9365C87.5684 35.8285 86.8608 35.7086 86.0898 35.5918L85.2998 35.4766L84.6377 35.3916C81.1052 34.9803 74.3422 34.7435 67.5439 34.6973ZM110.16 41.7871C110.07 41.7871 110.001 41.811 109.973 41.8223C109.938 41.8357 109.911 41.8507 109.895 41.8604C109.861 41.8797 109.833 41.8999 109.816 41.9131C109.781 41.9406 109.744 41.9731 109.711 42.0039C109.642 42.068 109.552 42.1567 109.45 42.2617C109.244 42.4737 108.963 42.7745 108.634 43.1328C107.975 43.8505 107.113 44.8129 106.245 45.7949C105.378 46.7771 104.502 47.7815 103.819 48.583C103.478 48.9834 103.183 49.3346 102.96 49.6084C102.802 49.8022 102.664 49.9769 102.574 50.1045L102.501 50.2158C102.322 50.5202 102.407 50.8307 102.536 51.041C102.658 51.2388 102.85 51.4106 103.056 51.5586C103.371 51.7852 103.805 52.0171 104.331 52.2441L104.887 52.4697C108.022 53.6666 111.243 55.5561 113.967 57.6875C116.697 59.8243 118.888 62.1736 120.001 64.2715C120.349 64.9271 120.706 65.5284 121.004 65.9707C121.152 66.1902 121.291 66.3815 121.413 66.5225C121.473 66.5915 121.54 66.6616 121.609 66.7188C121.644 66.7473 121.691 66.7823 121.747 66.8115C121.798 66.838 121.894 66.8798 122.019 66.8799C122.298 66.8799 122.558 66.7257 122.74 66.5967C122.948 66.45 123.173 66.2488 123.401 66.0186C123.861 65.5561 124.381 64.93 124.882 64.2539C125.384 63.5762 125.876 62.8367 126.276 62.1436C126.671 61.4593 126.996 60.7885 127.14 60.2549C127.959 57.212 126.853 53.9495 124.372 50.9473C121.888 47.9415 117.983 45.1375 113.048 42.958C112.343 42.6469 111.687 42.3632 111.196 42.1572C110.952 42.0545 110.746 41.9704 110.596 41.9111C110.521 41.8818 110.456 41.8569 110.405 41.8389C110.38 41.83 110.353 41.82 110.327 41.8125C110.315 41.8088 110.297 41.8041 110.277 41.7998L110.16 41.7871ZM123.764 5.15039C123.075 5.17869 122.387 5.26366 121.777 5.4043C121.177 5.5428 120.614 5.74433 120.207 6.0293C119.838 6.28752 119.284 6.84554 118.56 7.65527C117.823 8.47912 116.878 9.60283 115.719 11.0322C113.4 13.8921 110.214 17.9907 106.107 23.3906C103.257 27.1387 100.329 30.9227 99.5977 31.8047C98.8494 32.7069 96.5863 35.634 94.5703 38.3076C92.8076 40.6453 90.4507 43.6721 88.9551 45.5254L88.3711 46.2422C83.9831 51.5653 76.8673 55.8723 68.9092 57.9844C66.741 58.5598 64.0159 59.4256 62.8457 59.916C62.2216 60.1774 61.6974 60.4351 61.3994 60.7139C61.2483 60.8553 61.0712 61.0799 61.0732 61.3838C61.0756 61.6978 61.2661 61.9197 61.4375 62.0576C61.6124 62.1983 61.8451 62.3171 62.1055 62.4229C62.3717 62.531 62.6981 62.6384 63.0811 62.748C63.8472 62.9674 64.8776 63.2059 66.1875 63.4834C68.6892 64.0136 70.5314 64.2619 72.3945 64.1777C74.2563 64.0936 76.11 63.6783 78.6377 62.9219C81.4557 62.079 84.4894 61.5818 87.2744 61.5029L91.6377 61.3799L91.9863 61.3701L92.0977 61.04L93.4043 57.1543C94.1114 55.0534 94.6458 53.7187 95.4863 52.3242C96.3326 50.9202 97.4991 49.4394 99.4951 47.0605C104.61 40.9641 118.25 25.8799 125.783 17.9893C127.919 15.7518 129.254 14.0539 129.85 12.5293C130.468 10.9465 130.278 9.58344 129.507 8.0918C129.257 7.60787 128.911 7.11051 128.556 6.69434C128.252 6.33939 127.912 6.00899 127.59 5.80273L127.453 5.72168C127.001 5.47996 126.409 5.32736 125.784 5.23926C125.152 5.15012 124.452 5.12208 123.764 5.15039Z" fill="black" stroke="black"/>
</svg>
