<svg width="163" height="150" viewBox="0 0 163 150" fill="none" xmlns="http://www.w3.org/2000/svg">
<path fill-rule="evenodd" clip-rule="evenodd" d="M44.4689 1.55107C33.8183 4.37627 23.5025 10.2538 16.4629 17.5081C10.2184 23.943 7.81282 27.6869 5.32546 34.8432C3.53866 39.9832 2.85356 50.1021 3.98681 54.6112C6.03053 62.7448 11.8539 69.8295 18.2432 71.9559C25.3421 74.3186 32.9529 72.443 38.6179 66.9352C40.7981 64.8152 41.4092 64.4991 41.7253 65.3249C41.9417 65.89 42.939 68.9972 43.9422 72.2295L45.7657 78.107L40.1233 77.6799C18.6354 76.0547 0.160165 93.0195 0.0011233 114.522C-0.0703487 124.244 3.26952 132.699 9.82627 139.393C13.9987 143.652 17.7854 145.987 24.1638 148.233C30.6053 150.5 40.9597 150.599 47.172 148.452C60.2269 143.939 69.8962 133.246 72.6031 120.328C73.8137 114.549 73.8059 112.055 72.5555 105.989C71.3218 100.004 68.8409 94.9079 64.9215 90.3072C63.3047 88.4091 61.9815 86.6813 61.9815 86.4678C61.9815 86.2542 63.3202 85.7206 64.9563 85.2819C74.2425 82.7935 81.1772 74.1708 79.6847 66.9688C79.4426 65.7997 77.8232 62.0022 76.0859 58.5299C74.3487 55.0576 72.9277 51.9737 72.9277 51.6769C72.9277 51.3795 74.3352 51.0008 76.0563 50.8356C83.002 50.1666 90.7113 44.7568 92.8992 39.0161C95.3866 32.4915 94.7266 24.5424 91.1485 17.9319C87.0443 10.3493 77.5714 3.37367 68.1242 0.977512C62.192 -0.527026 51.309 -0.263151 44.4689 1.55107ZM65.3059 6.74404C71.8272 8.12923 76.594 10.6841 81.1547 15.2384C85.6696 19.7475 87.6663 23.5759 88.1988 28.7457C89.1202 37.6903 83.5899 44.1426 74.2773 44.9885C70.1872 45.3601 69.5034 44.913 68.7462 41.3684C68.2852 39.2097 68.3013 39.1903 70.1209 39.7116C75.0731 41.1303 78.7233 39.6729 77.0653 36.94C75.567 34.4696 71.6502 33.2276 65.5229 33.2786C55.3159 33.3631 42.1432 38.8935 34.0263 46.5014C29.2261 51.0008 26.637 55.9705 27.7818 58.4886C28.2004 59.4093 29.0265 60.0048 29.8835 60.0048C31.5718 60.0048 33.6419 58.2751 33.6709 56.8402C33.6818 56.2744 34.1351 55.2305 34.6786 54.5209C35.6579 53.2402 35.6747 53.2421 36.9116 54.7538C38.6771 56.9125 38.4775 58.1074 35.835 61.2009C33.1171 64.3829 29.6337 66.3255 25.6712 66.8694C22.0042 67.3733 16.526 64.9784 14.123 61.8216C10.7824 57.4332 9.61121 53.7125 9.58996 47.424C9.55648 37.6535 13.0187 29.745 20.7724 21.8797C32.5511 9.93119 50.9188 3.68852 65.3059 6.74404ZM122.198 35.6696C119.447 38.4258 119.337 40.1142 121.596 44.8988C122.943 47.753 123.174 48.9401 122.809 51.1492C121.92 56.5222 121.588 56.6151 117.343 52.677C114.41 49.9563 112.828 49.0008 110.387 48.4762C101.553 46.5782 92.0925 52.0473 87.0978 61.9403C83.5139 69.0398 83.0599 71.5656 82.9247 85.1664C82.8236 95.2924 82.5133 99.1866 81.3343 105.124C79.6698 113.506 79.8121 116.768 82.0291 121.086C84.4269 125.753 87.5839 127.935 92.415 128.259C95.8727 128.492 96.7426 128.822 98.6833 130.643C102.562 134.281 106.241 135.322 111.25 134.197C114.02 133.575 114.463 133.65 116.304 135.05C121.004 138.624 126.5 138.84 132.298 135.678C136.854 133.194 140.538 128.768 144.691 120.793C146.672 116.989 150.603 110.538 153.427 106.457C160.646 96.0234 162.555 91.2188 162.933 82.5361C163.275 74.6463 162.349 70.4404 159.229 65.7217C155.179 59.5945 148.248 56.9377 141.15 58.7906C139.042 59.3409 137.323 59.7667 137.33 59.7371C138.489 54.7383 138.962 49.2111 138.534 45.651C137.94 40.7097 136.966 38.5297 134.155 35.8522C132.52 34.2941 131.483 33.9083 128.315 33.6786C124.611 33.4102 124.376 33.487 122.198 35.6696ZM130.396 40.4884C132.086 42.3852 132.988 47.0737 132.56 51.7389C131.995 57.897 131.367 59.2745 129.305 58.8796C127.123 58.4615 126.925 58.0332 127.704 55.4189C128.765 51.8608 128.494 46.3665 127.097 43.1007C126.396 41.4626 125.995 39.951 126.205 39.7413C126.983 38.9613 129.423 39.3961 130.396 40.4884ZM63.0935 43.8755C63.5687 45.8272 66.1204 51.8511 68.7643 57.2615C74.0339 68.0456 74.4563 70.112 72.1041 73.6095C69.8724 76.927 63.4695 80.0051 58.8 80.0051C53.4448 80.0051 52.4789 78.8754 49.1082 68.6694C46.0703 59.4719 43.1766 52.6086 41.6017 50.8647C41.0383 50.2408 40.7241 49.3563 40.9043 48.8995C41.8399 46.5291 57.0905 39.7819 60.657 40.16C61.9905 40.3013 62.362 40.869 63.0935 43.8755ZM110.071 54.8847C112.49 55.8009 115.271 58.5074 116.749 61.3874L117.956 63.7371L123.086 63.9707C129.034 64.241 130.447 65.0255 134.349 70.2191C136.934 73.6592 138.474 74.2986 139.934 72.5359C140.593 71.7398 140.621 70.9372 140.063 68.8436C139.672 67.372 139.485 65.9507 139.648 65.6842C139.813 65.4184 141.14 64.8791 142.597 64.4862C152.981 61.6842 160.192 74.565 156.026 88.4736C154.356 94.0498 152.282 97.9421 147.063 105.291C144.97 108.239 141.872 113.264 140.18 116.457C135.945 124.445 133.166 128.129 129.955 130.015C126.83 131.85 122.283 132.14 120.293 130.632C119.072 129.706 119.081 129.646 120.707 127.91C121.621 126.933 123.406 124.492 124.674 122.484C128.072 117.102 138.951 94.4563 140.19 90.1852C141.478 85.7471 141.291 82.02 139.731 81.0412C137.798 79.8283 136.605 81.3522 134.974 87.1187C133.036 93.9737 121.055 118.498 117.448 122.994C114.157 127.096 111.116 128.656 107.259 128.22C101.721 127.595 99.8095 124.108 100.05 115.07C100.218 108.742 99.4579 106.597 97.335 107.414C95.4607 108.135 94.6217 110.685 94.3126 116.605C93.97 123.167 93.6842 123.512 90.2612 121.486C86.2266 119.097 85.6407 114.715 87.7436 102.669C88.6489 97.4879 89.025 92.4278 89.025 85.4426C89.025 74.3276 89.6682 70.3062 92.2702 65.1662C96.4155 56.9757 104.009 52.5899 110.071 54.8847ZM102.993 74.0611C100.245 77.1038 97.4046 88.3891 97.3981 96.2956C97.3955 99.0673 97.5378 99.3602 98.8823 99.3602C101.813 99.3602 102.546 98.0828 103.518 91.2859C104.531 84.1948 104.976 82.4677 106.984 77.8547C108.633 74.0676 108.629 74.1985 107.092 74.1985C106.404 74.1985 105.663 73.9082 105.444 73.5534C104.865 72.614 104.17 72.7579 102.993 74.0611ZM47.0741 85.2174C54.6579 87.8297 61.0427 93.6253 64.6865 101.205C66.4559 104.884 66.783 106.355 67.0045 111.618C67.302 118.69 66.0084 123.615 62.3646 129.288C49.3039 149.619 19.0513 148.431 8.68272 127.179C6.33509 122.368 6.28486 122.106 6.28486 114.795V107.327L9.00144 101.834C16.3444 86.9871 32.1654 80.0825 47.0741 85.2174ZM31.2576 91.4252C29.2428 91.8162 26.5675 95.2382 26.5675 97.4247C26.5675 98.4589 27.2957 100.128 28.2345 101.246C29.5815 102.85 30.3935 103.231 32.4623 103.231C35.8556 103.231 37.4299 102.299 38.5426 99.6312C39.8381 96.524 38.4582 93.2382 35.3038 91.9175C34.063 91.3982 32.9658 91.0123 32.866 91.0607C32.7662 91.1091 32.0425 91.273 31.2576 91.4252ZM34.1731 97.2563C33.8499 98.9376 31.7186 99.1254 31.7186 97.4718C31.7186 96.5485 32.132 96.1343 33.0534 96.1343C33.9748 96.1343 34.3218 96.4821 34.1731 97.2563ZM49.0541 105.762C45.1669 109.657 47.5577 115.783 52.9644 115.783C55.2078 115.783 55.9959 115.422 57.5399 113.69C60.0221 110.907 60.017 108.26 57.5238 105.762C56.1305 104.366 55.0307 103.876 53.289 103.876C51.5472 103.876 50.4475 104.366 49.0541 105.762ZM54.7377 109.521C55.0899 110.581 53.0726 111.337 52.2072 110.47C51.837 110.099 51.7385 109.464 51.9883 109.058C52.5575 108.136 54.3797 108.443 54.7377 109.521ZM15.3934 112.555C11.9382 115.764 13.5583 121.917 18.0868 122.785C20.2985 123.208 23.5328 121.848 24.8734 119.93C26.496 117.609 26.1901 115.012 24.0415 112.859C21.5599 110.373 17.8826 110.244 15.3934 112.555ZM34.262 112.324C32.6799 115.286 35.249 118.339 38.0577 116.833C39.8567 115.868 40.2592 114.232 39.1233 112.495C37.8632 110.568 35.249 110.476 34.262 112.324ZM20.7724 116.78C20.7724 117.64 20.343 118.07 19.4846 118.07C18.6263 118.07 18.1969 117.64 18.1969 116.78C18.1969 115.92 18.6263 115.489 19.4846 115.489C20.343 115.489 20.7724 115.92 20.7724 116.78ZM35.2561 125.975C32.7623 128.124 32.3721 132.099 34.421 134.485C35.6193 135.881 36.5716 136.309 38.5921 136.363C41.594 136.441 43.1419 135.399 44.3601 132.48C46.6884 126.899 39.8516 122.014 35.2561 125.975ZM40.0048 129.904C40.8554 130.931 40.33 131.619 38.6939 131.619C37.5407 131.619 37.0886 130.325 37.9431 129.468C38.5934 128.817 39.2122 128.947 40.0048 129.904Z" fill="black"/>
</svg>
